# xmcd
#
# Track frame offsets:
#	150
#	17565
#	32105
#	48202
#	68502
#	88090
#	106022
#	125190
#	144142
#	166157
#
# Disc length: 2458 seconds
#
# Revision: 3
# Processed by: cddbd v1.5.1PL2 Copyright (c) Steve Scherf et al.
# Submitted via: CDmax 2.0
#
DISCID=7509980a
DTITLE=Code of Ethics - Blaze
DYEAR=1999
DGENRE=Electronic
TTITLE0=Hallelujah 2000
TTITLE1=Father
TTITLE2=Exalted
TTITLE3=Psalm 19
TTITLE4=Move Me
TTITLE5=Better
TTITLE6=I Love You Lord - Here Is My Heart (medley)
TTITLE7=Still You Love
TTITLE8=Pure and Holy
TTITLE9=My Everything
EXTD=
EXTT0=
EXTT1=
EXTT2=
EXTT3=
EXTT4=
EXTT5=
EXTT6=
EXTT7=
EXTT8=
EXTT9=
PLAYORDER=
